<svg xmlns="http://www.w3.org/2000/svg" width="94.255" height="38.157" viewBox="0 0 94.255 38.157"><defs><style>.a{fill:#fff;}.b{fill:none;stroke:#fff;stroke-linecap:round;stroke-linejoin:round;stroke-width:2px;}</style></defs><g transform="translate(-3.8 -7.2)"><g transform="translate(3.8 7.2)"><g transform="translate(14.945)"><path class="a" d="M43.4,15.074v5.733h-.5V7.2h4.243a4.8,4.8,0,0,1,3.249,1.032,3.744,3.744,0,0,1,1.147,2.9A3.77,3.77,0,0,1,50.43,14a4.566,4.566,0,0,1-3.211,1.032H43.4Zm0-.535h3.746a4.353,4.353,0,0,0,2.867-.879,3.068,3.068,0,0,0,1.032-2.484,3.23,3.23,0,0,0-1.032-2.561A4.166,4.166,0,0,0,47.143,7.7H43.4Z" transform="translate(-42.9 -7.2)"/></g><g transform="translate(26.182 3.325)"><path class="a" d="M76.734,16.435l-.65-.038a2.91,2.91,0,0,0-2.14.841A4.342,4.342,0,0,0,72.8,19.569v6.612h-.5V16.091h.5v2.1a3.925,3.925,0,0,1,1.223-1.682,3.233,3.233,0,0,1,2.064-.612,1.927,1.927,0,0,1,.726.115Z" transform="translate(-72.3 -15.9)"/></g><g transform="translate(31.418 3.287)"><path class="a" d="M93.262,26.243a7.246,7.246,0,0,1-.191-1.835A3.88,3.88,0,0,1,91.427,25.9a5.111,5.111,0,0,1-2.332.535,3.353,3.353,0,0,1-2.255-.764,2.66,2.66,0,0,1,.42-4.2,5.8,5.8,0,0,1,3.325-.841h2.484V19.134a2.564,2.564,0,0,0-.8-1.988,3.233,3.233,0,0,0-2.293-.688,3.508,3.508,0,0,0-2.293.726,2.142,2.142,0,0,0-.917,1.758h-.5a2.607,2.607,0,0,1,1.07-2.1A4.112,4.112,0,0,1,89.975,16a3.985,3.985,0,0,1,2.6.8,2.933,2.933,0,0,1,.994,2.293v4.816a5.968,5.968,0,0,0,.268,2.255v.076h-.573ZM89.134,25.9a4.576,4.576,0,0,0,2.446-.65,3.916,3.916,0,0,0,1.529-1.8V21.045H90.778a5.48,5.48,0,0,0-3.325.841,2.093,2.093,0,0,0-.917,1.758,1.971,1.971,0,0,0,.726,1.567A2.478,2.478,0,0,0,89.134,25.9Z" transform="translate(-86 -15.924)"/><path class="a" d="M112.915,20.96a6.179,6.179,0,0,1,1.032-3.784,3.29,3.29,0,0,1,2.79-1.376,3.766,3.766,0,0,1,1.988.535,3.668,3.668,0,0,1,1.414,1.529V16.029h.5v9.938A4.492,4.492,0,0,1,119.6,29.1a3.523,3.523,0,0,1-2.79,1.108,3.882,3.882,0,0,1-1.873-.459,4.562,4.562,0,0,1-1.452-1.261l.344-.344a4.083,4.083,0,0,0,1.3,1.147,3.265,3.265,0,0,0,1.644.382,3.031,3.031,0,0,0,2.408-.956,3.821,3.821,0,0,0,.879-2.676V24.515a3.669,3.669,0,0,1-1.414,1.338,4.39,4.39,0,0,1-2.026.459,3.29,3.29,0,0,1-2.79-1.376,6.3,6.3,0,0,1-1.032-3.822V20.96Zm.535.191a5.9,5.9,0,0,0,.841,3.4,2.719,2.719,0,0,0,2.408,1.223,3.74,3.74,0,0,0,2.179-.612,2.971,2.971,0,0,0,1.261-1.682V18.934A3.328,3.328,0,0,0,116.7,16.3a2.806,2.806,0,0,0-2.408,1.223A6.463,6.463,0,0,0,113.45,21.151Z" transform="translate(-102.557 -15.8)"/><path class="a" d="M148.9,26.12h-.5v-6.8a3.378,3.378,0,0,0-.65-2.255,2.648,2.648,0,0,0-2.1-.726,3.228,3.228,0,0,0-2.714,1.452,4.962,4.962,0,0,0-.841,1.949V26.12h-.5V16.029h.5V18.4a4.634,4.634,0,0,1,1.452-1.911,3.761,3.761,0,0,1,4.166-.115,2.929,2.929,0,0,1,1.07,1.835,4.061,4.061,0,0,1,1.452-1.758,4.2,4.2,0,0,1,2.255-.65,3.116,3.116,0,0,1,2.446.917,4.122,4.122,0,0,1,.8,2.79v6.574h-.5V19.546a3.9,3.9,0,0,0-.65-2.446,2.469,2.469,0,0,0-2.1-.764,3.467,3.467,0,0,0-2.9,1.452,2.948,2.948,0,0,0-.688,1.605Z" transform="translate(-120.349 -15.8)"/><path class="a" d="M191.962,26.243a7.245,7.245,0,0,1-.191-1.835,3.88,3.88,0,0,1-1.644,1.491,5.111,5.111,0,0,1-2.332.535,3.353,3.353,0,0,1-2.255-.764,2.66,2.66,0,0,1,.42-4.2,5.8,5.8,0,0,1,3.325-.841h2.484V19.134a2.564,2.564,0,0,0-.8-1.988,3.233,3.233,0,0,0-2.293-.688,3.508,3.508,0,0,0-2.293.726,2.142,2.142,0,0,0-.917,1.758h-.5a2.606,2.606,0,0,1,1.07-2.1A4.112,4.112,0,0,1,188.675,16a3.985,3.985,0,0,1,2.6.8,2.933,2.933,0,0,1,.994,2.293v4.816a5.968,5.968,0,0,0,.268,2.255v.076h-.573ZM187.8,25.9a4.576,4.576,0,0,0,2.446-.65,3.915,3.915,0,0,0,1.529-1.8V21.045h-2.332a5.48,5.48,0,0,0-3.325.841,2.093,2.093,0,0,0-.917,1.758,1.971,1.971,0,0,0,.726,1.567A2.478,2.478,0,0,0,187.8,25.9Z" transform="translate(-146.975 -15.924)"/></g><g transform="translate(0 19.914)"><path class="a" d="M17.33,75.926h-3.44L7.24,65V75.926H3.8V59.3H7.24l6.689,10.97V59.3h3.4V75.926Z" transform="translate(-3.8 -59.3)"/></g><g transform="translate(67.308 19.646)"><path class="a" d="M179.9,75.926V59.3h5.81a7.656,7.656,0,0,1,4.587,1.147,3.993,3.993,0,0,1,1.567,3.4,3.7,3.7,0,0,1-.612,2.14,3.752,3.752,0,0,1-1.758,1.376,3.678,3.678,0,0,1,2.026,1.3,3.8,3.8,0,0,1,.726,2.37,4.368,4.368,0,0,1-1.529,3.631,6.954,6.954,0,0,1-4.357,1.261Zm3.4-9.67h2.523c1.72-.038,2.6-.726,2.6-2.064a1.993,1.993,0,0,0-.65-1.644,3.354,3.354,0,0,0-2.064-.5H183.3Zm0,2.408v4.472h2.943a2.745,2.745,0,0,0,1.873-.573,1.974,1.974,0,0,0,.688-1.605,2.109,2.109,0,0,0-2.37-2.332H183.3Z" transform="translate(-179.9 -59.032)"/><path class="a" d="M226.264,71.137a1.75,1.75,0,0,0-.688-1.491,8.8,8.8,0,0,0-2.446-1.108,16.456,16.456,0,0,1-2.828-1.147c-1.873-1.032-2.828-2.408-2.828-4.128a4.19,4.19,0,0,1,.764-2.408,4.6,4.6,0,0,1,2.179-1.644,8.527,8.527,0,0,1,3.172-.612,7.583,7.583,0,0,1,3.172.65,5.121,5.121,0,0,1,2.179,1.835,4.872,4.872,0,0,1,.764,2.676h-3.44A2.149,2.149,0,0,0,225.538,62a3,3,0,0,0-2.026-.65,3.2,3.2,0,0,0-1.949.535,1.68,1.68,0,0,0,.115,2.79,8.052,8.052,0,0,0,2.408,1.032,9.949,9.949,0,0,1,4.243,2.179,4.411,4.411,0,0,1,1.338,3.249,4,4,0,0,1-1.644,3.4,7.227,7.227,0,0,1-4.4,1.223,8.561,8.561,0,0,1-3.478-.688,5.777,5.777,0,0,1-2.408-1.911,5.033,5.033,0,0,1-.841-2.828h3.44c0,1.835,1.108,2.752,3.287,2.752a3.151,3.151,0,0,0,1.911-.5A1.808,1.808,0,0,0,226.264,71.137Z" transform="translate(-202.758 -58.6)"/></g><path d="M64.2,61.2Z" transform="translate(-41.114 -40.56)"/><path class="a" d="M90.479,61.472a21.038,21.038,0,0,0-2.79-2.408c-.191-.153-.42-.306-.612-.459h0A9.6,9.6,0,0,0,75,59.79c-.841.8-1.567,1.644-2.293,2.484-.956,1.07-1.491.535-2.446.535s-1.491.535-2.446-.535c-.764-.841-1.452-1.682-2.293-2.484A9.778,9.778,0,0,0,58.64,57a9.467,9.467,0,0,0-5.351,1.605h0c-.229.153-.42.306-.612.459a24.149,24.149,0,0,0-2.828,2.408c-.994,1.185-3.249,1.261-3.249,1.261v2.446s1.338-.076,1.8.42a21.374,21.374,0,0,1,.994,3.287,10.946,10.946,0,0,0,.573,1.567,9.058,9.058,0,0,0,.726,1.338h0a9.56,9.56,0,0,0,13.225,2.752,9.661,9.661,0,0,0,3.478-4.052h0l.038-.038c.688-1.185,1.376-4.357,1.682-4.854a1.4,1.4,0,0,1,1.949-.268.893.893,0,0,1,.268.268c.306.5.994,3.708,1.682,4.854l.038.038h0A9.557,9.557,0,0,0,85.7,75.27a9.661,9.661,0,0,0,4.052-3.478h0a6.511,6.511,0,0,0,.726-1.338,7.586,7.586,0,0,0,.535-1.567,22.978,22.978,0,0,1,.956-3.287c.42-.5,1.72-.42,1.72-.42V62.733A5.128,5.128,0,0,1,90.479,61.472Zm-31.8,13.339a8.256,8.256,0,1,1,8.256-8.256h0A8.27,8.27,0,0,1,58.678,74.811Zm23.086,0a8.256,8.256,0,1,1,8.256-8.256h0A8.27,8.27,0,0,1,81.764,74.811Z" transform="translate(-30.241 -37.966)"/><path class="b" d="M68.4,80.933a5.375,5.375,0,0,1,3.44-2.293c2.293-.382,4.2,2.293,4.2,2.293" transform="translate(-43.709 -51.311)"/><path class="b" d="M138.044,80.933a5.375,5.375,0,0,0-3.44-2.293c-2.293-.382-4.2,2.293-4.2,2.293" transform="translate(-82.011 -51.311)"/></g></g></svg>